HIERARCHY
ROOT Hips
{
 OFFSET 0.000000 0.000000 0.000000
 CHANNELS 6 Xposition Yposition Zposition Yrotation Xrotation Zrotation
 JOINT Chest
 {
  OFFSET 0.000000 9.588913 -0.003946
  CHANNELS 3 Yrotation Xrotation Zrotation
  JOINT Chest2
  {
   OFFSET 0.000000 9.541882 0.008053
   CHANNELS 3 Yrotation Xrotation Zrotation
   JOINT Chest3
   {
    OFFSET 0.000000 9.501360 0.000000
    CHANNELS 3 Yrotation Xrotation Zrotation
    JOINT Chest4
    {
     OFFSET 0.000000 9.491660 0.000000
     CHANNELS 3 Yrotation Xrotation Zrotation
     JOINT Neck
     {
      OFFSET 0.000000 14.331917 0.000000
      CHANNELS 3 Yrotation Xrotation Zrotation
      JOINT Head
      {
       OFFSET 0.000000 8.884799 0.017034
       CHANNELS 3 Yrotation Xrotation Zrotation
       End Site
       {
        OFFSET 0.000000 16.896195 0.008993
       }
      }
     }
     JOINT RightCollar
     {
      OFFSET -2.923010 9.499495 0.000000
      CHANNELS 3 Yrotation Xrotation Zrotation
      JOINT RightShoulder
      {
       OFFSET -13.795216 0.000000 0.000000
       CHANNELS 3 Yrotation Xrotation Zrotation
       JOINT RightElbow
       {
        OFFSET -30.272209 0.000000 0.000000
        CHANNELS 3 Yrotation Xrotation Zrotation
        JOINT RightWrist
        {
         OFFSET -24.478199 0.000000 0.000000
         CHANNELS 3 Yrotation Xrotation Zrotation
         End Site
         {
          OFFSET -18.090752 0.000000 0.000000
         }
        }
       }
      }
     }
     JOINT LeftCollar
     {
      OFFSET 2.923010 9.499495 0.000000
      CHANNELS 3 Yrotation Xrotation Zrotation
      JOINT LeftShoulder
      {
       OFFSET 13.795216 0.000000 0.000000
       CHANNELS 3 Yrotation Xrotation Zrotation
       JOINT LeftElbow
       {
        OFFSET 30.272209 0.000000 0.000000
        CHANNELS 3 Yrotation Xrotation Zrotation
        JOINT LeftWrist
        {
         OFFSET 24.478199 0.000000 0.000000
         CHANNELS 3 Yrotation Xrotation Zrotation
         End Site
         {
          OFFSET 18.090752 0.000000 0.000000
         }
        }
       }
      }
     }
    }
   }
  }
 }
 JOINT RightHip
 {
  OFFSET -7.826875 0.019532 0.001973
  CHANNELS 3 Yrotation Xrotation Zrotation
  JOINT RightKnee
  {
   OFFSET 0.000000 -40.546152 -0.001885
   CHANNELS 3 Yrotation Xrotation Zrotation
   JOINT RightAnkle
   {
    OFFSET 0.000000 -39.417092 -0.003189
    CHANNELS 3 Yrotation Xrotation Zrotation
    JOINT RightToe
    {
     OFFSET 0.000000 -7.579396 17.243563
     CHANNELS 3 Yrotation Xrotation Zrotation
     End Site
     {
      OFFSET 0.000000 -1.500329 6.694466
     }
    }
   }
  }
 }
 JOINT LeftHip
 {
  OFFSET 7.826875 0.019532 0.001973
  CHANNELS 3 Yrotation Xrotation Zrotation
  JOINT LeftKnee
  {
   OFFSET 0.000000 -40.546152 -0.001885
   CHANNELS 3 Yrotation Xrotation Zrotation
   JOINT LeftAnkle
   {
    OFFSET 0.000000 -39.417092 -0.003189
    CHANNELS 3 Yrotation Xrotation Zrotation
    JOINT LeftToe
    {
     OFFSET 0.000000 -7.579396 17.243563
     CHANNELS 3 Yrotation Xrotation Zrotation
     End Site
     {
      OFFSET 0.000000 -1.500329 6.694466
     }
    }
   }
  }
 }
}
MOTION
Frames: 11
Frame Time: 0.008333
17.152446 89.241623 5.594408 177.587461 -7.233784 -0.037878 3.832638 3.241025 0.469110 2.187399 1.856390 0.249892 2.735872 2.318889 0.323473 2.187400 1.856390 0.249892 -0.194870 24.767419 -1.104095 0.040689 1.092827 -1.152697 4.500832 3.166382 -1.638076 -7.568825 -2.907439 81.855964 30.938690 12.035068 26.006717 -12.931470 -0.649116 9.524100 -4.247411 1.756685 0.213586 8.573821 0.257006 -90.385089 -2.058046 -8.042574 -3.562128 -1.215313 -0.927445 -0.231273 -9.375889 10.731507 -0.306882 4.169225 1.940467 0.096265 6.388627 -4.818766 -1.192867 0.012514 0.049323 0.013236 9.605499 7.632826 -0.321326 -5.120656 1.904190 -0.299409 -2.690744 -3.027694 1.037736 -0.015616 0.023523 -0.008676
17.137721 89.238968 5.587815 177.659548 -7.215303 -0.026026 3.847643 3.233337 0.472588 2.196181 1.852359 0.252427 2.746860 2.313829 0.326662 2.196182 1.852359 0.252427 -0.332233 24.753377 -1.075296 -0.114793 1.074935 -1.090017 4.576709 3.109815 -1.646394 -7.267824 -3.142874 81.312476 31.761234 11.610994 26.992096 -13.585172 -0.400065 10.132543 -4.261256 1.739022 0.216224 8.527235 0.241922 -90.375846 -2.095014 -8.045334 -3.578077 -1.203898 -0.927172 -0.229299 -9.419859 10.731901 -0.324178 4.163696 1.919513 0.081593 6.364090 -4.832597 -1.174610 0.011246 0.048273 0.011931 9.573807 7.618900 -0.348611 -5.120352 1.898917 -0.307463 -2.713678 -3.017973 1.054888 -0.016070 0.021372 -0.008178
17.120994 89.236388 5.580365 177.737015 -7.200146 -0.012839 3.864666 3.227633 0.476839 2.206237 1.849401 0.255046 2.759441 2.310108 0.329969 2.206237 1.849401 0.255046 -0.476437 24.739300 -1.046607 -0.277647 1.057332 -1.025917 4.655063 3.061447 -1.659019 -6.982594 -3.416568 80.778261 32.508734 11.132814 27.946714 -14.225562 -0.154903 10.719571 -4.276012 1.721027 0.217576 8.485029 0.227425 -90.357909 -2.137100 -8.037639 -3.601851 -1.195796 -0.927876 -0.228742 -9.461856 10.732325 -0.343618 4.158411 1.906354 0.066034 6.333837 -4.851089 -1.156511 0.010435 0.047116 0.012269 9.535378 7.603277 -0.378838 -5.119270 1.904264 -0.316090 -2.737379 -3.011532 1.074742 -0.016386 0.017997 -0.008581
17.102474 89.233841 5.571862 177.822252 -7.188775 0.001025 3.882628 3.224487 0.481063 2.216988 1.847813 0.257598 2.772892 2.308099 0.333204 2.216988 1.847813 0.257598 -0.628318 24.724509 -1.017778 -0.448840 1.039225 -0.959933 4.735072 3.023092 -1.670316 -6.716669 -3.731512 80.251624 33.195605 10.622365 28.860621 -14.842809 0.090508 11.299177 -4.291639 1.701750 0.219293 8.453791 0.213708 -90.332559 -2.184502 -8.017500 -3.634324 -1.190914 -0.931386 -0.228719 -9.506029 10.734127 -0.364569 4.152877 1.900384 0.050121 6.295930 -4.873943 -1.139075 0.009531 0.045603 0.013523 9.492252 7.588954 -0.409799 -5.122829 1.914577 -0.326583 -2.760901 -3.005359 1.095651 -0.016075 0.013737 -0.008197
17.082547 89.231234 5.562343 177.915393 -7.179683 0.014325 3.900765 3.223207 0.485883 2.227988 1.847302 0.260335 2.786657 2.307435 0.336677 2.227988 1.847302 0.260335 -0.786794 24.709763 -0.989348 -0.627091 1.021597 -0.892899 4.819358 2.993447 -1.677249 -6.465666 -4.082187 79.735328 33.833221 10.097827 29.714007 -15.424829 0.333595 11.877071 -4.304782 1.681291 0.222648 8.437259 0.202933 -90.306502 -2.238638 -7.987008 -3.672424 -1.187968 -0.934834 -0.228017 -9.553908 10.737197 -0.387028 4.143717 1.898809 0.033477 6.261842 -4.899817 -1.120168 0.009025 0.043980 0.014542 9.443797 7.576407 -0.440131 -5.131612 1.925539 -0.338702 -2.783064 -2.998833 1.115664 -0.015123 0.010007 -0.006102
17.061357 89.228510 5.551543 178.013704 -7.172804 0.027771 3.920074 3.223865 0.491597 2.239929 1.847802 0.263569 2.801601 2.308030 0.340784 2.239929 1.847802 0.263569 -0.952296 24.696112 -0.961601 -0.812816 1.005788 -0.825032 4.908380 2.963058 -1.679336 -6.215005 -4.450673 79.235299 34.419347 9.555084 30.479558 -15.960161 0.578264 12.447132 -4.313702 1.660183 0.226978 8.433242 0.196201 -90.282437 -2.301387 -7.952134 -3.717064 -1.184631 -0.935613 -0.225658 -9.604991 10.741359 -0.410628 4.128744 1.902274 0.016130 6.230268 -4.930010 -1.100105 0.008829 0.042844 0.014983 9.392521 7.565593 -0.470210 -5.141464 1.938393 -0.352619 -2.806871 -2.994222 1.135441 -0.014487 0.007409 -0.002968
17.038890 89.225641 5.539096 178.117717 -7.168676 0.042485 3.941384 3.226866 0.498525 2.253279 1.849333 0.267421 2.818313 2.309909 0.345676 2.253279 1.849333 0.267421 -1.126728 24.683677 -0.935042 -1.007984 0.992019 -0.756443 5.002586 2.924610 -1.676102 -5.959920 -4.819972 78.757611 34.951840 8.982935 31.145773 -16.446197 0.827227 12.996076 -4.320596 1.638090 0.231791 8.437324 0.193636 -90.258391 -2.370074 -7.918834 -3.771265 -1.181860 -0.936013 -0.222712 -9.660708 10.747198 -0.437959 4.110677 1.910766 -0.001873 6.204474 -4.965922 -1.079693 0.008994 0.042835 0.016171 9.341224 7.556990 -0.500659 -5.152467 1.954240 -0.369160 -2.834286 -2.992602 1.157819 -0.014165 0.005683 -0.000604
17.015483 89.222582 5.525061 178.228355 -7.165751 0.057131 3.964992 3.230697 0.507352 2.267978 1.851132 0.272004 2.836714 2.312119 0.351491 2.267978 1.851133 0.272004 -1.310568 24.672966 -0.909330 -1.213220 0.980980 -0.686655 5.101868 2.881232 -1.667218 -5.702643 -5.187371 78.304611 35.420688 8.366822 31.719973 -16.892777 1.069028 13.506618 -4.328117 1.616136 0.238729 8.448760 0.194720 -90.234523 -2.439971 -7.889712 -3.834258 -1.180330 -0.939045 -0.220863 -9.721382 10.755011 -0.469719 4.093928 1.920337 -0.018306 6.185701 -5.004770 -1.059509 0.009621 0.043248 0.018258 9.290205 7.549704 -0.531109 -5.165378 1.971406 -0.386731 -2.864344 -2.993477 1.183200 -0.013271 0.004824 0.000170
16.991266 89.219339 5.509457 178.344783 -7.163303 0.071510 3.991414 3.234627 0.517450 2.284211 1.852958 0.277270 2.857036 2.314354 0.358166 2.284211 1.852959 0.277270 -1.505186 24.664358 -0.883163 -1.430338 0.973227 -0.613947 5.199785 2.835122 -1.655518 -5.448324 -5.559048 77.877702 35.805926 7.694137 32.215538 -17.303829 1.284691 13.972625 -4.337013 1.596652 0.247302 8.469372 0.196984 -90.212332 -2.509282 -7.861356 -3.903335 -1.179970 -0.945824 -0.220447 -9.785183 10.766170 -0.501130 4.078174 1.927829 -0.033623 6.153623 -5.043805 -1.040090 0.009150 0.043016 0.019899 9.238175 7.543962 -0.561507 -5.180289 1.987831 -0.405511 -2.893803 -2.995413 1.210701 -0.012026 0.004277 0.000363
16.966142 89.216001 5.492000 178.468540 -7.163165 0.086167 4.019493 3.239776 0.528178 2.301289 1.855693 0.283312 2.878421 2.317720 0.365824 2.301289 1.855694 0.283312 -1.711042 24.657906 -0.857424 -1.659674 0.968917 -0.539169 5.293837 2.785558 -1.645156 -5.209881 -5.943993 77.479243 36.091228 6.964447 32.649415 -17.682349 1.457834 14.399531 -4.343606 1.579375 0.255190 8.499129 0.198364 -90.190483 -2.579646 -7.829822 -3.978844 -1.180371 -0.955042 -0.217848 -9.850985 10.784020 -0.528783 4.061522 1.931288 -0.053273 6.100134 -5.082157 -1.019001 0.006951 0.041961 0.020816 9.182436 7.543200 -0.592145 -5.198527 2.000102 -0.425135 -2.921632 -2.995179 1.238592 -0.010977 0.002973 0.000950
16.940117 89.212628 5.472842 178.598946 -7.165201 0.100847 4.048197 3.246256 0.539673 2.318527 1.859358 0.290032 2.900009 2.322244 0.374334 2.318527 1.859359 0.290032 -1.924911 24.654141 -0.833488 -1.897463 0.968727 -0.464546 5.389941 2.736990 -1.637143 -5.003594 -6.353710 77.110230 36.270888 6.184998 33.042831 -18.035278 1.585388 14.791168 -4.342974 1.564386 0.262699 8.534844 0.199647 -90.168693 -2.653924 -7.797087 -4.059370 -1.181350 -0.965391 -0.210502 -9.917353 10.807191 -0.555554 4.043255 1.931753 -0.077010 6.041618 -5.120044 -0.994234 0.004831 0.040554 0.020917 9.123746 7.546545 -0.623469 -5.217262 2.009395 -0.442744 -2.952836 -2.991985 1.263682 -0.010211 0.000384 0.002829
